<?xml version="1.0" standalone="no"?>
<!DOCTYPE svg PUBLIC "-//W3C//DTD SVG 20010904//EN"
 "http://www.w3.org/TR/2001/REC-SVG-20010904/DTD/svg10.dtd">
<svg version="1.0" xmlns="http://www.w3.org/2000/svg"
 width="760.000000pt" height="760.000000pt" viewBox="0 0 760.000000 760.000000"
 preserveAspectRatio="xMidYMid meet">
<metadata>
Created by potrace 1.11, written by Peter Selinger 2001-2013
</metadata>
<g transform="translate(0.000000,760.000000) scale(0.100000,-0.100000)"
fill="#000000" stroke="none">
<path d="M4065 7584 c-64 -22 -111 -62 -144 -124 -108 -203 72 -431 297 -376
39 9 107 53 128 81 10 15 24 33 31 40 19 20 35 93 32 149 -2 48 -30 118 -61
156 -15 18 -85 72 -90 70 -2 -1 -21 3 -43 9 -50 13 -103 12 -150 -5z"/>
<path d="M3455 7071 c-86 -40 -136 -113 -137 -203 -3 -202 239 -309 381 -168
90 90 94 224 10 315 -66 71 -171 94 -254 56z"/>
<path d="M3154 6379 c-79 -7 -136 -32 -184 -81 -37 -37 -70 -104 -77 -157 -6
-39 15 -151 28 -151 5 0 9 -6 9 -13 0 -21 66 -85 113 -109 24 -12 62 -22 89
-22 27 -1 49 -3 50 -6 1 -3 2 -219 3 -480 l2 -475 -35 -60 c-20 -33 -38 -62
-41 -65 -8 -6 -29 -40 -38 -60 -9 -19 -138 -234 -168 -280 -13 -19 -34 -53
-47 -76 -12 -22 -52 -88 -88 -147 -36 -59 -70 -115 -75 -125 -61 -104 -101
-168 -107 -170 -5 -2 -8 -7 -8 -12 0 -5 -43 -79 -95 -165 -52 -86 -95 -160
-95 -166 0 -5 -4 -9 -8 -9 -5 0 -16 -15 -26 -32 -9 -18 -22 -42 -29 -53 -7
-11 -25 -42 -42 -70 -16 -27 -32 -52 -35 -55 -3 -3 -16 -25 -29 -50 -14 -25
-27 -47 -31 -50 -4 -3 -21 -34 -38 -70 -55 -115 -70 -241 -42 -362 14 -59 68
-174 99 -210 11 -12 28 -32 38 -44 31 -36 113 -93 166 -117 118 -53 65 -51
1332 -51 649 0 1198 3 1220 6 77 12 101 19 159 48 225 113 348 357 299 596
-16 82 -46 144 -142 299 -44 72 -105 173 -136 225 -69 116 -211 350 -248 407
-15 24 -27 47 -27 53 0 5 -4 10 -10 10 -5 0 -10 4 -10 9 0 13 -123 215 -132
219 -5 2 -8 7 -8 12 0 5 -20 41 -44 82 -24 40 -66 109 -92 153 -27 44 -89 145
-138 225 l-90 145 -2 482 -1 481 23 5 c13 2 21 1 19 -3 -5 -8 58 9 105 28 39
16 101 82 124 132 27 61 27 159 -1 221 -34 76 -111 138 -188 154 -42 8 -1184
11 -1271 4z m732 -2032 c22 -13 53 -44 69 -68 17 -24 36 -50 43 -57 6 -7 12
-18 12 -23 0 -5 5 -15 11 -22 6 -7 85 -124 175 -262 90 -137 168 -257 174
-265 76 -109 300 -455 309 -479 42 -100 -23 -231 -130 -261 -19 -6 -270 -10
-588 -10 -1036 0 -969 -1 -1010 20 -77 39 -121 116 -114 199 4 53 7 59 105
201 44 63 160 232 258 375 99 143 183 265 187 270 5 6 24 33 43 60 19 28 38
52 42 53 4 2 8 8 8 14 0 8 55 93 70 108 3 3 23 31 44 63 61 90 109 117 202
112 33 -2 65 -11 90 -28z"/>
<path d="M1286 1136 c-12 -9 -146 -276 -146 -291 0 -2 -26 -59 -59 -127 -32
-68 -69 -145 -81 -173 -54 -119 -76 -167 -132 -284 -78 -165 -78 -168 -36
-179 18 -5 34 -6 35 -3 2 3 36 5 75 4 41 -1 79 4 86 10 8 6 27 41 43 77 l30
65 203 0 c113 0 206 -2 208 -5 4 -5 23 -46 49 -107 15 -35 27 -41 82 -39 20 1
37 -1 37 -4 0 -6 71 -2 108 6 12 2 22 11 22 19 0 8 -27 71 -60 141 -33 69 -60
128 -60 129 0 1 -25 56 -56 121 -113 239 -124 264 -151 321 -14 32 -27 60 -28
63 -1 3 -19 43 -41 90 -22 47 -49 104 -59 127 -19 44 -44 58 -69 39z m44 -501
c11 -25 18 -47 17 -49 -1 -2 7 -14 18 -26 11 -12 19 -25 18 -29 0 -3 5 -21 13
-40 8 -18 14 -37 14 -41 0 -5 -48 -9 -106 -9 -121 -1 -116 -9 -64 104 15 33
35 77 45 98 9 20 19 37 21 37 3 0 13 -20 24 -45z"/>
<path d="M2915 1142 c-53 -6 -151 -42 -211 -78 -111 -67 -205 -192 -239 -319
-19 -73 -22 -194 -5 -255 7 -25 13 -49 14 -55 3 -18 54 -124 68 -141 7 -9 39
-43 72 -75 57 -57 168 -122 226 -133 14 -3 45 -8 70 -13 50 -9 90 -9 169 0 94
11 281 117 281 159 0 7 -31 46 -70 87 -68 72 -70 74 -92 57 -43 -30 -99 -57
-108 -51 -6 3 -10 2 -10 -3 0 -5 -6 -9 -12 -10 -31 -3 -124 -3 -138 1 -84 22
-165 91 -201 172 -38 86 -30 212 18 289 25 40 103 119 110 112 2 -2 21 4 41
14 27 14 56 18 109 16 60 -3 81 -9 137 -40 37 -20 72 -36 79 -36 16 0 137 128
137 144 0 31 -110 106 -197 135 -58 19 -180 31 -248 23z"/>
<path d="M4252 1141 c-11 -7 -22 -55 -46 -201 -3 -19 -8 -46 -11 -60 -3 -14
-7 -43 -10 -65 -3 -22 -10 -67 -16 -100 -7 -33 -13 -67 -14 -75 -4 -28 -18
-115 -21 -135 -2 -11 -7 -36 -10 -55 -4 -19 -8 -44 -10 -55 -2 -11 -7 -40 -10
-64 -3 -25 -7 -47 -9 -50 -6 -10 -19 -114 -19 -155 -1 -47 -9 -45 158 -46 63
-1 68 6 81 120 3 25 7 54 9 66 2 12 7 45 11 75 3 30 8 65 11 79 2 14 7 41 9
60 8 57 11 69 16 74 3 3 44 -70 91 -162 48 -92 104 -201 126 -242 62 -114 92
-114 148 -2 21 43 40 79 44 82 3 3 41 76 85 163 44 87 83 160 87 163 3 2 9
-20 13 -48 4 -29 9 -62 11 -73 5 -21 14 -89 19 -140 2 -16 5 -30 6 -30 1 0 3
-11 4 -25 4 -51 18 -126 26 -141 7 -14 26 -17 113 -17 112 0 121 4 111 51 -2
12 -6 36 -9 52 -2 17 -7 46 -10 65 -3 19 -8 46 -10 60 -2 14 -7 41 -10 60 -3
19 -8 49 -11 65 -3 17 -14 84 -25 150 -12 66 -23 131 -25 145 -35 222 -68 397
-75 404 -17 17 -47 16 -62 -2 -8 -9 -34 -52 -56 -94 -23 -43 -60 -112 -83
-155 -23 -43 -56 -105 -73 -138 -17 -33 -33 -62 -36 -65 -3 -3 -26 -45 -51
-95 -26 -49 -51 -91 -55 -92 -5 -2 -14 7 -20 20 -10 21 -79 152 -134 252 -25
46 -66 123 -158 295 -44 84 -67 103 -100 81z"/>
<path d="M6057 1123 c-9 -9 -9 -1015 1 -1029 4 -7 33 -12 65 -13 32 0 62 -3
67 -6 6 -3 10 -2 10 3 0 5 17 6 38 3 20 -4 55 -4 78 -1 22 4 49 3 60 0 10 -4
33 -4 51 1 18 4 36 3 39 -2 3 -5 10 -7 15 -3 9 5 162 9 184 4 6 -1 15 -1 20 0
6 1 17 3 25 4 21 2 28 204 7 212 -8 3 -108 6 -223 7 l-209 2 0 99 1 100 177 1
c132 0 180 4 186 13 12 20 7 192 -6 200 -7 4 -89 7 -182 7 -94 0 -172 2 -172
5 -1 3 -2 44 -3 93 l-2 87 207 0 c114 0 214 3 223 6 13 5 16 23 16 94 0 49 -3
95 -6 104 -5 14 -44 16 -333 16 -180 0 -331 -3 -334 -7z"/>
</g>
</svg>
